<?xml version="1.0" encoding="utf-8"?>
<svg version="1.1" xmlns:xlink="http://www.w3.org/1999/xlink" width="12px" height="12px" viewBox="128 24.5  12 12" xmlns="http://www.w3.org/2000/svg">
  <path d="M 134 24.5  C 137.36 24.5  140 27.14  140 30.5  C 140 33.86  137.36 36.5  134 36.5  C 130.64 36.5  128 33.86  128 30.5  C 128 27.14  130.64 24.5  134 24.5  Z " fill-rule="nonzero" fill="#ffffff" stroke="none" />
  <path d="M 134 25  C 137.08 25  139.5 27.42  139.5 30.5  C 139.5 33.58  137.08 36  134 36  C 130.92 36  128.5 33.58  128.5 30.5  C 128.5 27.42  130.92 25  134 25  Z " stroke-width="1" stroke="#797979" fill="none" />
  <path d="M 134 33.5  C 132.32 33.5  131 32.18  131 30.5  C 131 28.82  132.32 27.5  134 27.5  C 135.68 27.5  137 28.82  137 30.5  C 137 32.18  135.68 33.5  134 33.5  " fill-rule="nonzero" fill="#797979" stroke="none" />
</svg>