<?xml version="1.0" encoding="utf-8"?>
<svg version="1.1" xmlns:xlink="http://www.w3.org/1999/xlink" width="12px" height="12px" viewBox="195 24.5  12 12" xmlns="http://www.w3.org/2000/svg">
  <path d="M 201 24.5  C 204.36 24.5  207 27.14  207 30.5  C 207 33.86  204.36 36.5  201 36.5  C 197.64 36.5  195 33.86  195 30.5  C 195 27.14  197.64 24.5  201 24.5  Z " fill-rule="nonzero" fill="#ffffff" stroke="none" />
  <path d="M 201 25  C 204.08 25  206.5 27.42  206.5 30.5  C 206.5 33.58  204.08 36  201 36  C 197.92 36  195.5 33.58  195.5 30.5  C 195.5 27.42  197.92 25  201 25  Z " stroke-width="1" stroke="#797979" fill="none" />
  <path d="M 201 33.5  C 199.32 33.5  198 32.18  198 30.5  C 198 28.82  199.32 27.5  201 27.5  C 202.68 27.5  204 28.82  204 30.5  C 204 32.18  202.68 33.5  201 33.5  " fill-rule="nonzero" fill="#797979" stroke="none" />
</svg>