<?xml version="1.0" encoding="utf-8"?>
<svg version="1.1" xmlns:xlink="http://www.w3.org/1999/xlink" width="12px" height="12px" viewBox="128 144.5  12 12" xmlns="http://www.w3.org/2000/svg">
  <path d="M 134 144.5  C 137.36 144.5  140 147.14  140 150.5  C 140 153.86  137.36 156.5  134 156.5  C 130.64 156.5  128 153.86  128 150.5  C 128 147.14  130.64 144.5  134 144.5  Z " fill-rule="nonzero" fill="#ffffff" stroke="none" />
  <path d="M 134 145  C 137.08 145  139.5 147.42  139.5 150.5  C 139.5 153.58  137.08 156  134 156  C 130.92 156  128.5 153.58  128.5 150.5  C 128.5 147.42  130.92 145  134 145  Z " stroke-width="1" stroke="#797979" fill="none" />
  <path d="M 134 153.5  C 132.32 153.5  131 152.18  131 150.5  C 131 148.82  132.32 147.5  134 147.5  C 135.68 147.5  137 148.82  137 150.5  C 137 152.18  135.68 153.5  134 153.5  " fill-rule="nonzero" fill="#797979" stroke="none" />
</svg>