<?xml version="1.0" encoding="utf-8"?>
<svg version="1.1" xmlns:xlink="http://www.w3.org/1999/xlink" width="12px" height="12px" viewBox="261 144.5  12 12" xmlns="http://www.w3.org/2000/svg">
  <path d="M 267 144.5  C 270.36 144.5  273 147.14  273 150.5  C 273 153.86  270.36 156.5  267 156.5  C 263.64 156.5  261 153.86  261 150.5  C 261 147.14  263.64 144.5  267 144.5  Z " fill-rule="nonzero" fill="#ffffff" stroke="none" />
  <path d="M 267 145  C 270.08 145  272.5 147.42  272.5 150.5  C 272.5 153.58  270.08 156  267 156  C 263.92 156  261.5 153.58  261.5 150.5  C 261.5 147.42  263.92 145  267 145  Z " stroke-width="1" stroke="#797979" fill="none" />
  <path d="M 267 153.5  C 265.32 153.5  264 152.18  264 150.5  C 264 148.82  265.32 147.5  267 147.5  C 268.68 147.5  270 148.82  270 150.5  C 270 152.18  268.68 153.5  267 153.5  " fill-rule="nonzero" fill="#797979" stroke="none" />
</svg>