<?xml version="1.0" encoding="utf-8"?>
<svg version="1.1" xmlns:xlink="http://www.w3.org/1999/xlink" width="12px" height="12px" viewBox="128 573  12 12" xmlns="http://www.w3.org/2000/svg">
  <path d="M 134 573  C 137.36 573  140 575.64  140 579  C 140 582.36  137.36 585  134 585  C 130.64 585  128 582.36  128 579  C 128 575.64  130.64 573  134 573  Z " fill-rule="nonzero" fill="#ffffff" stroke="none" />
  <path d="M 134 573.5  C 137.08 573.5  139.5 575.92  139.5 579  C 139.5 582.08  137.08 584.5  134 584.5  C 130.92 584.5  128.5 582.08  128.5 579  C 128.5 575.92  130.92 573.5  134 573.5  Z " stroke-width="1" stroke="#797979" fill="none" />
  <path d="M 134 582  C 132.32 582  131 580.68  131 579  C 131 577.32  132.32 576  134 576  C 135.68 576  137 577.32  137 579  C 137 580.68  135.68 582  134 582  " fill-rule="nonzero" fill="#797979" stroke="none" />
</svg>